<svg xmlns="http://www.w3.org/2000/svg" xmlns:xlink="http://www.w3.org/1999/xlink" id="mermaid-1680709677311" width="100%" aria-roledescription="flowchart-v2" role="graphics-document document" viewBox="-8 -8 703.162 478.5" style="max-width:703.162px;background-color:#fff"><style>#mermaid-1680709677311{fill:#333}#mermaid-1680709677311 .edge-thickness-normal{stroke-width:2px}#mermaid-1680709677311 .edge-pattern-solid{stroke-dasharray:0}#mermaid-1680709677311 .marker{fill:#333;stroke:#333}#mermaid-1680709677311 .marker.cross{stroke:#333}#mermaid-1680709677311,#mermaid-1680709677311 svg{font-family:&quot;trebuchet ms&quot;,verdana,arial,sans-serif;font-size:16px}#mermaid-1680709677311 .label{font-family:&quot;trebuchet ms&quot;,verdana,arial,sans-serif;color:#333}#mermaid-1680709677311 .cluster span,#mermaid-1680709677311 .cluster-label span{color:#333}#mermaid-1680709677311 span{fill:#333;color:#333}#mermaid-1680709677311 .node circle,#mermaid-1680709677311 .node path,#mermaid-1680709677311 .node rect{fill:#ececff;stroke:#9370db;stroke-width:1px}#mermaid-1680709677311 .node .label{text-align:center}#mermaid-1680709677311 .flowchart-link{stroke:#333;fill:none}#mermaid-1680709677311 .edgeLabel{background-color:#e8e8e8;text-align:center}#mermaid-1680709677311 .edgeLabel rect{opacity:.5;background-color:#e8e8e8;fill:#e8e8e8}#mermaid-1680709677311 .cluster rect{fill:#ffffde;stroke:#aa3;stroke-width:1px}#mermaid-1680709677311 :root{--mermaid-font-family:&quot;trebuchet ms&quot;,verdana,arial,sans-serif}</style><g><marker id="flowchart-pointEnd" class="marker flowchart" markerHeight="12" markerUnits="userSpaceOnUse" markerWidth="12" orient="auto" refX="10" refY="5" viewBox="0 0 12 20"><path style="stroke-width:1;stroke-dasharray:1,0" d="M 0 0 L 10 5 L 0 10 z" class="arrowMarkerPath"/></marker><marker id="flowchart-pointStart" class="marker flowchart" markerHeight="12" markerUnits="userSpaceOnUse" markerWidth="12" orient="auto" refX="0" refY="5" viewBox="0 0 10 10"><path style="stroke-width:1;stroke-dasharray:1,0" d="M 0 5 L 10 10 L 10 0 z" class="arrowMarkerPath"/></marker><marker id="flowchart-circleEnd" class="marker flowchart" markerHeight="11" markerUnits="userSpaceOnUse" markerWidth="11" orient="auto" refX="11" refY="5" viewBox="0 0 10 10"><circle style="stroke-width:1;stroke-dasharray:1,0" cx="5" cy="5" r="5" class="arrowMarkerPath"/></marker><marker id="flowchart-circleStart" class="marker flowchart" markerHeight="11" markerUnits="userSpaceOnUse" markerWidth="11" orient="auto" refX="-1" refY="5" viewBox="0 0 10 10"><circle style="stroke-width:1;stroke-dasharray:1,0" cx="5" cy="5" r="5" class="arrowMarkerPath"/></marker><marker id="flowchart-crossEnd" class="marker cross flowchart" markerHeight="11" markerUnits="userSpaceOnUse" markerWidth="11" orient="auto" refX="12" refY="5.2" viewBox="0 0 11 11"><path style="stroke-width:2;stroke-dasharray:1,0" d="M 1,1 l 9,9 M 10,1 l -9,9" class="arrowMarkerPath"/></marker><marker id="flowchart-crossStart" class="marker cross flowchart" markerHeight="11" markerUnits="userSpaceOnUse" markerWidth="11" orient="auto" refX="-1" refY="5.2" viewBox="0 0 11 11"><path style="stroke-width:2;stroke-dasharray:1,0" d="M 1,1 l 9,9 M 10,1 l -9,9" class="arrowMarkerPath"/></marker><g class="root"><g class="clusters"><g id="Disk" class="cluster default"><rect width="504.625" height="83.5" x="38.984" y="379" rx="0" ry="0"/><g class="cluster-label" transform="translate(276.8359375, 379)"><foreignObject width="28.922" height="18.5"><div xmlns="http://www.w3.org/1999/xhtml" style="display:inline-block;white-space:nowrap"><span class="nodeLabel">Disk</span></div></foreignObject></g></g><g id="HostOS" class="cluster default"><rect width="418.061" height="310.5" x="0" y="0" rx="0" ry="0"/><g class="cluster-label" transform="translate(181.4443359375, 0)"><foreignObject width="55.172" height="18.5"><div xmlns="http://www.w3.org/1999/xhtml" style="display:inline-block;white-space:nowrap"><span class="nodeLabel">Host OS</span></div></foreignObject></g></g><g id="DockerImage" class="cluster default"><rect width="249.102" height="127" x="438.061" y="183.5" rx="0" ry="0"/><g class="cluster-label" transform="translate(514.083984375, 183.5)"><foreignObject width="97.055" height="18.5"><div xmlns="http://www.w3.org/1999/xhtml" style="display:inline-block;white-space:nowrap"><span class="nodeLabel">Docker Image</span></div></foreignObject></g></g><g id="DockerContainer" class="cluster default"><rect width="378.061" height="260.5" x="20" y="25" rx="0" ry="0"/><g class="cluster-label" transform="translate(147.0029296875, 25)"><foreignObject width="124.055" height="18.5"><div xmlns="http://www.w3.org/1999/xhtml" style="display:inline-block;white-space:nowrap"><span class="nodeLabel">Docker Container</span></div></foreignObject></g></g><g id="DockerMod" class="cluster default"><rect width="250.008" height="83.5" x="128.053" y="50" rx="0" ry="0"/><g class="cluster-label" transform="translate(211.552734375, 50)"><foreignObject width="83.008" height="18.5"><div xmlns="http://www.w3.org/1999/xhtml" style="display:inline-block;white-space:nowrap"><span class="nodeLabel">Docker Mod</span></div></foreignObject></g></g></g><g class="edgePaths"><path marker-end="url(#flowchart-pointEnd)" style="fill:none" id="L-Data-Volumes-0" d="M78.984375,251.25L78.984375,256.9583333333333C78.984375,262.6666666666667,78.984375,274.0833333333333,78.984375,283.9583333333333C78.984375,293.8333333333333,78.984375,302.1666666666667,78.984375,312.0416666666667C78.984375,321.9166666666667,78.984375,333.3333333333333,78.984375,344.75C78.984375,356.1666666666667,78.984375,367.5833333333333,98.98763020833333,378.6120626368704C118.99088541666667,389.6407919404075,158.99739583333334,400.28158388081494,179.00065104166666,405.6019798510186L199.00390625,410.9223758212224" class="edge-thickness-normal edge-pattern-solid flowchart-link LS-Data LE-Volumes"/><path marker-end="url(#flowchart-pointEnd)" style="fill:none" id="L-Code-DockerImageCode-0" d="M207.50884169161677,108.5L212.24955557634732,112.66666666666667C216.99026946107787,116.83333333333333,226.47169723053892,125.16666666666667,231.21241111526945,133.5C235.953125,141.83333333333334,235.953125,150.16666666666666,235.953125,158.5C235.953125,166.83333333333334,235.953125,175.16666666666666,275.4710286458333,187.0351082118609C314.9889322916667,198.9035497570551,394.0247395833333,214.3070995141102,433.5426432291667,222.00887439263775L473.060546875,229.71064927116532" class="edge-thickness-normal edge-pattern-solid flowchart-link LS-Code LE-DockerImageCode"/><path marker-end="url(#flowchart-pointEnd)" style="fill:none" id="L-Code-TempState-0" d="M184.35926974176647,108.5L183.34138363897205,112.66666666666667C182.32349753617765,116.83333333333333,180.2877253305888,125.16666666666667,179.2698392277944,133.5C178.251953125,141.83333333333334,178.251953125,150.16666666666666,178.251953125,158.5C178.251953125,166.83333333333334,178.251953125,175.16666666666666,182.96610115400327,183.5C187.68024918300657,191.83333333333334,197.10854524101308,200.16666666666666,201.82269327001634,204.33333333333334L206.5368412990196,208.5" class="edge-thickness-normal edge-pattern-solid flowchart-link LS-Code LE-TempState"/><path marker-end="url(#flowchart-pointEnd)" style="fill:none" id="L-Packages-DockerImagePackages-0" d="M314.40886976047904,108.5L317.1336935503992,112.66666666666667C319.85851734031934,116.83333333333333,325.3081649201597,125.16666666666667,328.03298871007985,133.5C330.7578125,141.83333333333334,330.7578125,150.16666666666666,330.7578125,158.5C330.7578125,166.83333333333334,330.7578125,175.16666666666666,370.9996744791667,186.625915798581C411.2415364583333,198.08516493049532,491.7252604166667,212.67032986099062,531.9671223958334,219.9629123262383L572.208984375,227.25549479148594" class="edge-thickness-normal edge-pattern-solid flowchart-link LS-Packages LE-DockerImagePackages"/><path marker-end="url(#flowchart-pointEnd)" style="fill:none" id="L-Packages-TempState-0" d="M299.44310207709583,108.5L298.44509808507985,112.66666666666667C297.44709409306387,116.83333333333333,295.4510861090319,125.16666666666667,294.453082117016,133.5C293.455078125,141.83333333333334,293.455078125,150.16666666666666,293.455078125,158.5C293.455078125,166.83333333333334,293.455078125,175.16666666666666,288.7572061376634,183.5C284.0593341503268,191.83333333333334,274.6635901756536,200.16666666666666,269.965718188317,204.33333333333334L265.2678462009804,208.5" class="edge-thickness-normal edge-pattern-solid flowchart-link LS-Packages LE-TempState"/><path marker-end="url(#flowchart-pointEnd)" style="fill:none" id="L-DockerImage-Disk-0" d="M497.634765625,310.5L497.634765625,316.2083333333333C497.634765625,321.9166666666667,497.634765625,333.3333333333333,497.634765625,344.75C497.634765625,356.1666666666667,497.634765625,367.5833333333333,497.634765625,373.2916666666667L497.634765625,379" class="edge-thickness-normal edge-pattern-solid flowchart-link LS-DockerImage LE-Disk"/><path marker-end="url(#flowchart-pointEnd)" style="fill:none" id="L-TempState-Disk-0" d="M235.953125,260.5L235.953125,264.6666666666667C235.953125,268.8333333333333,235.953125,277.1666666666667,235.953125,285.5C235.953125,293.8333333333333,235.953125,302.1666666666667,235.953125,312.0416666666667C235.953125,321.9166666666667,235.953125,333.3333333333333,235.953125,344.75C235.953125,356.1666666666667,235.953125,367.5833333333333,235.953125,373.2916666666667L235.953125,379" class="edge-thickness-normal edge-pattern-solid flowchart-link LS-TempState LE-Disk"/></g><g class="edgeLabels"><g class="edgeLabel"><g class="label" transform="translate(78.984375, 344.75) translate(-35.765625, -9.25)"><foreignObject width="71.531" height="18.5"><div xmlns="http://www.w3.org/1999/xhtml" style="display:inline-block;white-space:nowrap"><span class="edgeLabel">persistent</span></div></foreignObject></g></g><g class="edgeLabel"><g class="label" transform="translate(0, 0)"><foreignObject width="0" height="0"><div xmlns="http://www.w3.org/1999/xhtml" style="display:inline-block;white-space:nowrap"><span class="edgeLabel"/></div></foreignObject></g></g><g class="edgeLabel"><g class="label" transform="translate(0, 0)"><foreignObject width="0" height="0"><div xmlns="http://www.w3.org/1999/xhtml" style="display:inline-block;white-space:nowrap"><span class="edgeLabel"/></div></foreignObject></g></g><g class="edgeLabel"><g class="label" transform="translate(0, 0)"><foreignObject width="0" height="0"><div xmlns="http://www.w3.org/1999/xhtml" style="display:inline-block;white-space:nowrap"><span class="edgeLabel"/></div></foreignObject></g></g><g class="edgeLabel"><g class="label" transform="translate(0, 0)"><foreignObject width="0" height="0"><div xmlns="http://www.w3.org/1999/xhtml" style="display:inline-block;white-space:nowrap"><span class="edgeLabel"/></div></foreignObject></g></g><g class="edgeLabel"><g class="label" transform="translate(0, 0)"><foreignObject width="0" height="0"><div xmlns="http://www.w3.org/1999/xhtml" style="display:inline-block;white-space:nowrap"><span class="edgeLabel"/></div></foreignObject></g></g><g class="edgeLabel"><g class="label" transform="translate(235.953125, 319.75) translate(-101.203125, -9.25)"><foreignObject width="202.406" height="18.5"><div xmlns="http://www.w3.org/1999/xhtml" style="display:inline-block;white-space:nowrap"><span class="edgeLabel">cleared on container restart</span></div></foreignObject></g></g></g><g class="nodes"><g id="flowchart-Volumes-48" class="node default" transform="translate(235.953125, 420.75)"><rect width="73.898" height="33.5" x="-36.949" y="-16.75" class="basic label-container" rx="0" ry="0"/><g class="label" transform="translate(-29.44921875, -9.25)"><foreignObject width="58.898" height="18.5"><div xmlns="http://www.w3.org/1999/xhtml" style="display:inline-block;white-space:nowrap"><span class="nodeLabel">Volumes</span></div></foreignObject></g></g><g id="flowchart-Data-46" class="node default" transform="translate(78.984375, 234.5)"><rect width="47.969" height="33.5" x="-23.984" y="-16.75" class="basic label-container" rx="0" ry="0"/><g class="label" transform="translate(-16.484375, -9.25)"><foreignObject width="32.969" height="18.5"><div xmlns="http://www.w3.org/1999/xhtml" style="display:inline-block;white-space:nowrap"><span class="nodeLabel">Data</span></div></foreignObject></g></g><g id="flowchart-TempState-47" class="node default" transform="translate(235.953125, 234.5)"><rect width="90.539" height="52" x="-45.27" y="-26" class="basic label-container" rx="0" ry="0"/><g class="label" transform="translate(-37.76953125, -18.5)"><foreignObject width="75.539" height="37"><div xmlns="http://www.w3.org/1999/xhtml" style="display:inline-block;white-space:nowrap"><span class="nodeLabel">Temporary<br/>Data</span></div></foreignObject></g></g><g id="flowchart-Code-44" class="node default" transform="translate(188.451171875, 91.75)"><rect width="50.797" height="33.5" x="-25.398" y="-16.75" class="basic label-container" rx="0" ry="0"/><g class="label" transform="translate(-17.8984375, -9.25)"><foreignObject width="35.797" height="18.5"><div xmlns="http://www.w3.org/1999/xhtml" style="display:inline-block;white-space:nowrap"><span class="nodeLabel">Code</span></div></foreignObject></g></g><g id="flowchart-Packages-45" class="node default" transform="translate(303.455078125, 91.75)"><rect width="79.211" height="33.5" x="-39.605" y="-16.75" class="basic label-container" rx="0" ry="0"/><g class="label" transform="translate(-32.10546875, -9.25)"><foreignObject width="64.211" height="18.5"><div xmlns="http://www.w3.org/1999/xhtml" style="display:inline-block;white-space:nowrap"><span class="nodeLabel">Packages</span></div></foreignObject></g></g><g id="flowchart-DockerImageCode-42" class="node default" transform="translate(497.634765625, 234.5)"><rect width="49.148" height="33.5" x="-24.574" y="-16.75" class="basic label-container" rx="0" ry="0"/><g class="label" transform="translate(-17.07421875, -9.25)"><foreignObject width="34.148" height="18.5"><div xmlns="http://www.w3.org/1999/xhtml" style="display:inline-block;white-space:nowrap"><span class="nodeLabel">code</span></div></foreignObject></g></g><g id="flowchart-DockerImagePackages-43" class="node default" transform="translate(612.185546875, 234.5)"><rect width="79.953" height="33.5" x="-39.977" y="-16.75" class="basic label-container" rx="0" ry="0"/><g class="label" transform="translate(-32.4765625, -9.25)"><foreignObject width="64.953" height="18.5"><div xmlns="http://www.w3.org/1999/xhtml" style="display:inline-block;white-space:nowrap"><span class="nodeLabel">packages</span></div></foreignObject></g></g></g></g></g></svg>