<svg xmlns="http://www.w3.org/2000/svg" xmlns:xlink="http://www.w3.org/1999/xlink" id="mermaid-1680707976214" width="100%" aria-roledescription="flowchart-v2" role="graphics-document document" viewBox="-8 -8 318.285 550.5" style="max-width:318.285px;background-color:#fff"><style>#mermaid-1680707976214{fill:#333}#mermaid-1680707976214 .edge-thickness-normal{stroke-width:2px}#mermaid-1680707976214 .edge-pattern-solid{stroke-dasharray:0}#mermaid-1680707976214 .marker{fill:#333;stroke:#333}#mermaid-1680707976214 .marker.cross{stroke:#333}#mermaid-1680707976214,#mermaid-1680707976214 svg{font-family:&quot;trebuchet ms&quot;,verdana,arial,sans-serif;font-size:16px}#mermaid-1680707976214 .label{font-family:&quot;trebuchet ms&quot;,verdana,arial,sans-serif;color:#333}#mermaid-1680707976214 span{fill:#333;color:#333}#mermaid-1680707976214 .node circle,#mermaid-1680707976214 .node path,#mermaid-1680707976214 .node rect{fill:#ececff;stroke:#9370db;stroke-width:1px}#mermaid-1680707976214 .node .label{text-align:center}#mermaid-1680707976214 .flowchart-link{stroke:#333;fill:none}#mermaid-1680707976214 .edgeLabel{background-color:#e8e8e8;text-align:center}#mermaid-1680707976214 .edgeLabel rect{opacity:.5;background-color:#e8e8e8;fill:#e8e8e8}#mermaid-1680707976214 :root{--mermaid-font-family:&quot;trebuchet ms&quot;,verdana,arial,sans-serif}</style><g><marker id="flowchart-pointEnd" class="marker flowchart" markerHeight="12" markerUnits="userSpaceOnUse" markerWidth="12" orient="auto" refX="10" refY="5" viewBox="0 0 12 20"><path style="stroke-width:1;stroke-dasharray:1,0" d="M 0 0 L 10 5 L 0 10 z" class="arrowMarkerPath"/></marker><marker id="flowchart-pointStart" class="marker flowchart" markerHeight="12" markerUnits="userSpaceOnUse" markerWidth="12" orient="auto" refX="0" refY="5" viewBox="0 0 10 10"><path style="stroke-width:1;stroke-dasharray:1,0" d="M 0 5 L 10 10 L 10 0 z" class="arrowMarkerPath"/></marker><marker id="flowchart-circleEnd" class="marker flowchart" markerHeight="11" markerUnits="userSpaceOnUse" markerWidth="11" orient="auto" refX="11" refY="5" viewBox="0 0 10 10"><circle style="stroke-width:1;stroke-dasharray:1,0" cx="5" cy="5" r="5" class="arrowMarkerPath"/></marker><marker id="flowchart-circleStart" class="marker flowchart" markerHeight="11" markerUnits="userSpaceOnUse" markerWidth="11" orient="auto" refX="-1" refY="5" viewBox="0 0 10 10"><circle style="stroke-width:1;stroke-dasharray:1,0" cx="5" cy="5" r="5" class="arrowMarkerPath"/></marker><marker id="flowchart-crossEnd" class="marker cross flowchart" markerHeight="11" markerUnits="userSpaceOnUse" markerWidth="11" orient="auto" refX="12" refY="5.2" viewBox="0 0 11 11"><path style="stroke-width:2;stroke-dasharray:1,0" d="M 1,1 l 9,9 M 10,1 l -9,9" class="arrowMarkerPath"/></marker><marker id="flowchart-crossStart" class="marker cross flowchart" markerHeight="11" markerUnits="userSpaceOnUse" markerWidth="11" orient="auto" refX="-1" refY="5.2" viewBox="0 0 11 11"><path style="stroke-width:2;stroke-dasharray:1,0" d="M 1,1 l 9,9 M 10,1 l -9,9" class="arrowMarkerPath"/></marker><g class="root"><g class="edgePaths"><path marker-end="url(#flowchart-pointEnd)" style="fill:none" id="L-DockerCommand-InitModsEnd-0" d="M140.36328125,33.5L140.36328125,37.666666666666664C140.36328125,41.833333333333336,140.36328125,50.166666666666664,140.36328125,58.5C140.36328125,66.83333333333333,140.36328125,75.16666666666667,140.36328125,79.33333333333333L140.36328125,83.5" class="edge-thickness-normal edge-pattern-solid flowchart-link LS-DockerCommand LE-InitModsEnd"/><path marker-end="url(#flowchart-pointEnd)" style="fill:none" id="L-InitModsEnd-InitModUniversalTailscalePostinstall-0" d="M118.96032934131736,117L113.63621195109779,121.16666666666667C108.31209456087824,125.33333333333333,97.66385978043911,133.66666666666666,92.33974239021956,144.79166666666666C87.015625,155.91666666666666,87.015625,169.83333333333334,87.015625,183.75C87.015625,197.66666666666666,87.015625,211.58333333333334,87.015625,225.5C87.015625,239.41666666666666,87.015625,253.33333333333334,87.015625,267.25C87.015625,281.1666666666667,87.015625,295.0833333333333,92.92684942614771,306.2083333333333C98.83807385229541,317.3333333333333,110.66052270459083,325.6666666666667,116.57174713073853,329.8333333333333L122.48297155688623,334" class="edge-thickness-normal edge-pattern-solid flowchart-link LS-InitModsEnd LE-InitModUniversalTailscalePostinstall"/><path marker-end="url(#flowchart-pointEnd)" style="fill:none" id="L-InitModsEnd-SvcTailscale-0" d="M140.36328125,117L140.36328125,121.16666666666667C140.36328125,125.33333333333333,140.36328125,133.66666666666666,140.36328125,144.79166666666666C140.36328125,155.91666666666666,140.36328125,169.83333333333334,140.36328125,183.75C140.36328125,197.66666666666666,140.36328125,211.58333333333334,145.27650168413174,222.70833333333334C150.18972211826346,233.83333333333334,160.01616298652695,242.16666666666666,164.9293834206587,246.33333333333334L169.8426038547904,250.5" class="edge-thickness-normal edge-pattern-solid flowchart-link LS-InitModsEnd LE-SvcTailscale"/><path marker-end="url(#flowchart-pointEnd)" style="fill:none" id="L-InitModsEnd-SvcTailscaleUp-0" d="M179.86557354041918,117L189.69201440868264,121.16666666666667C199.51845527694613,125.33333333333333,219.17133701347305,133.66666666666666,228.9977778817365,142C238.82421875,150.33333333333334,238.82421875,158.66666666666666,238.82421875,162.83333333333334L238.82421875,167" class="edge-thickness-normal edge-pattern-solid flowchart-link LS-InitModsEnd LE-SvcTailscaleUp"/><path marker-end="url(#flowchart-pointEnd)" style="fill:none" id="L-InitModsPackageInstall-InitModUniversalTailscale-0" d="M146.24609375,451L146.24609375,455.1666666666667C146.24609375,459.3333333333333,146.24609375,467.6666666666667,146.24609375,476C146.24609375,484.3333333333333,146.24609375,492.6666666666667,146.24609375,496.8333333333333L146.24609375,501" class="edge-thickness-normal edge-pattern-solid flowchart-link LS-InitModsPackageInstall LE-InitModUniversalTailscale"/><path marker-end="url(#flowchart-pointEnd)" style="fill:none" id="L-InitModUniversalTailscalePostinstall-InitModsPackageInstall-0" d="M146.24609375,367.5L146.24609375,371.6666666666667C146.24609375,375.8333333333333,146.24609375,384.1666666666667,146.24609375,392.5C146.24609375,400.8333333333333,146.24609375,409.1666666666667,146.24609375,413.3333333333333L146.24609375,417.5" class="edge-thickness-normal edge-pattern-solid flowchart-link LS-InitModUniversalTailscalePostinstall LE-InitModsPackageInstall"/><path marker-end="url(#flowchart-pointEnd)" style="fill:none" id="L-SvcTailscale-InitModUniversalTailscalePostinstall-0" d="M189.59375,284L189.59375,288.1666666666667C189.59375,292.3333333333333,189.59375,300.6666666666667,185.2676366017964,309C180.94152320359282,317.3333333333333,172.28929640718562,325.6666666666667,167.96318300898204,329.8333333333333L163.63706961077844,334" class="edge-thickness-normal edge-pattern-solid flowchart-link LS-SvcTailscale LE-InitModUniversalTailscalePostinstall"/><path marker-end="url(#flowchart-pointEnd)" style="fill:none" id="L-SvcTailscaleUp-SvcTailscale-0" d="M238.82421875,200.5L238.82421875,204.66666666666666C238.82421875,208.83333333333334,238.82421875,217.16666666666666,233.91099831586826,225.5C228.9977778817365,233.83333333333334,219.17133701347305,242.16666666666666,214.2581165793413,246.33333333333334L209.3448961452096,250.5" class="edge-thickness-normal edge-pattern-solid flowchart-link LS-SvcTailscaleUp LE-SvcTailscale"/></g><g class="edgeLabels"><g class="edgeLabel"><g class="label" transform="translate(0, 0)"><foreignObject width="0" height="0"><div xmlns="http://www.w3.org/1999/xhtml" style="display:inline-block;white-space:nowrap"><span class="edgeLabel"/></div></foreignObject></g></g><g class="edgeLabel"><g class="label" transform="translate(0, 0)"><foreignObject width="0" height="0"><div xmlns="http://www.w3.org/1999/xhtml" style="display:inline-block;white-space:nowrap"><span class="edgeLabel"/></div></foreignObject></g></g><g class="edgeLabel"><g class="label" transform="translate(0, 0)"><foreignObject width="0" height="0"><div xmlns="http://www.w3.org/1999/xhtml" style="display:inline-block;white-space:nowrap"><span class="edgeLabel"/></div></foreignObject></g></g><g class="edgeLabel"><g class="label" transform="translate(0, 0)"><foreignObject width="0" height="0"><div xmlns="http://www.w3.org/1999/xhtml" style="display:inline-block;white-space:nowrap"><span class="edgeLabel"/></div></foreignObject></g></g><g class="edgeLabel"><g class="label" transform="translate(0, 0)"><foreignObject width="0" height="0"><div xmlns="http://www.w3.org/1999/xhtml" style="display:inline-block;white-space:nowrap"><span class="edgeLabel"/></div></foreignObject></g></g><g class="edgeLabel"><g class="label" transform="translate(0, 0)"><foreignObject width="0" height="0"><div xmlns="http://www.w3.org/1999/xhtml" style="display:inline-block;white-space:nowrap"><span class="edgeLabel"/></div></foreignObject></g></g><g class="edgeLabel"><g class="label" transform="translate(0, 0)"><foreignObject width="0" height="0"><div xmlns="http://www.w3.org/1999/xhtml" style="display:inline-block;white-space:nowrap"><span class="edgeLabel"/></div></foreignObject></g></g><g class="edgeLabel"><g class="label" transform="translate(0, 0)"><foreignObject width="0" height="0"><div xmlns="http://www.w3.org/1999/xhtml" style="display:inline-block;white-space:nowrap"><span class="edgeLabel"/></div></foreignObject></g></g></g><g class="nodes"><g id="flowchart-InitModsEnd-46" class="node default" transform="translate(140.36328125, 100.25)"><rect width="114.602" height="33.5" x="-57.301" y="-16.75" class="basic label-container" rx="0" ry="0"/><g class="label" transform="translate(-49.80078125, -9.25)"><foreignObject width="99.602" height="18.5"><div xmlns="http://www.w3.org/1999/xhtml" style="display:inline-block;white-space:nowrap"><span class="nodeLabel">init-mods-end</span></div></foreignObject></g></g><g id="flowchart-InitModsPackageInstall-47" class="node default" transform="translate(146.24609375, 434.25)"><rect width="196.539" height="33.5" x="-98.27" y="-16.75" class="basic label-container" rx="0" ry="0"/><g class="label" transform="translate(-90.76953125, -9.25)"><foreignObject width="181.539" height="18.5"><div xmlns="http://www.w3.org/1999/xhtml" style="display:inline-block;white-space:nowrap"><span class="nodeLabel">init-mods-package-install</span></div></foreignObject></g></g><g id="flowchart-InitModUniversalTailscale-48" class="node default" transform="translate(146.24609375, 517.75)"><rect width="212.328" height="33.5" x="-106.164" y="-16.75" class="basic label-container" rx="0" ry="0"/><g class="label" transform="translate(-98.6640625, -9.25)"><foreignObject width="197.328" height="18.5"><div xmlns="http://www.w3.org/1999/xhtml" style="display:inline-block;white-space:nowrap"><span class="nodeLabel">init-mod-universal-tailscale</span></div></foreignObject></g></g><g id="flowchart-InitModUniversalTailscalePostinstall-49" class="node default" transform="translate(146.24609375, 350.75)"><rect width="292.492" height="33.5" x="-146.246" y="-16.75" class="basic label-container" rx="0" ry="0"/><g class="label" transform="translate(-138.74609375, -9.25)"><foreignObject width="277.492" height="18.5"><div xmlns="http://www.w3.org/1999/xhtml" style="display:inline-block;white-space:nowrap"><span class="nodeLabel">init-mod-universal-tailscale-postinstall</span></div></foreignObject></g></g><g id="flowchart-SvcTailscale-50" class="node default" transform="translate(189.59375, 267.25)"><rect width="103.391" height="33.5" x="-51.695" y="-16.75" class="basic label-container" rx="0" ry="0"/><g class="label" transform="translate(-44.1953125, -9.25)"><foreignObject width="88.391" height="18.5"><div xmlns="http://www.w3.org/1999/xhtml" style="display:inline-block;white-space:nowrap"><span class="nodeLabel">svc-tailscale</span></div></foreignObject></g></g><g id="flowchart-SvcTailscaleUp-51" class="node default" transform="translate(238.82421875, 183.75)"><rect width="126.922" height="33.5" x="-63.461" y="-16.75" class="basic label-container" rx="0" ry="0"/><g class="label" transform="translate(-55.9609375, -9.25)"><foreignObject width="111.922" height="18.5"><div xmlns="http://www.w3.org/1999/xhtml" style="display:inline-block;white-space:nowrap"><span class="nodeLabel">svc-tailscale-up</span></div></foreignObject></g></g><g id="flowchart-DockerCommand-52" class="node default" transform="translate(140.36328125, 16.75)"><rect width="187.539" height="33.5" x="-93.77" y="-16.75" class="basic label-container" rx="0" ry="0"/><g class="label" transform="translate(-86.26953125, -9.25)"><foreignObject width="172.539" height="18.5"><div xmlns="http://www.w3.org/1999/xhtml" style="display:inline-block;white-space:nowrap"><span class="nodeLabel">main container program</span></div></foreignObject></g></g></g></g></g></svg>