<svg xmlns="http://www.w3.org/2000/svg" width="1161" height="106" fill="none" viewBox="0 0 1161 106"><rect width="105.455" height="105.455" x="105.455" y=".051" fill="#9F9995"/><rect width="105.455" height="105.455" x="421.82" y=".051" fill="#242424"/><circle cx="369.093" cy="52.779" r="52.727" fill="#9F9995"/><path fill="#D6D2CC" d="M52.7798 52.7797C52.7798 23.6304 29.1495 0.000121037 0.000167847 0.000119763L0.000163233 105.559C29.1495 105.559 52.7798 81.9291 52.7798 52.7797Z"/><path fill="#343433" d="M105.408 52.7797C105.408 23.6304 81.7775 0.000121037 52.6281 0.000119763L52.6281 105.559C81.7775 105.559 105.408 81.9291 105.408 52.7797Z"/><path fill="#D6D2CC" d="M580.424 52.7797C609.573 52.7797 633.204 29.1494 633.204 4.57764e-05L527.644 3.65481e-05C527.644 29.1494 551.275 52.7797 580.424 52.7797Z"/><path fill="#343433" d="M580.424 105.563C609.573 105.563 633.204 81.933 633.204 52.7836L527.644 52.7836C527.644 81.933 551.275 105.563 580.424 105.563Z"/><path fill="#474645" d="M316.365 105.506H210.91L316.365 0.0511475V105.506Z"/><rect width="105.455" height="105.455" x="1161" y="105.506" fill="#9F9995" transform="rotate(-180 1161 105.506)"/><rect width="104.46" height="105.455" x="738.185" y="105.506" fill="#474645" transform="rotate(-180 738.185 105.506)"/><ellipse cx="791.41" cy="52.779" fill="#9F9995" rx="53.225" ry="52.727" transform="rotate(-180 791.41 52.7787)"/><path fill="#D6D2CC" d="M897.125 52.7796C897.125 81.929 920.756 105.559 949.905 105.559L949.905 -2.35964e-05C920.756 -2.74188e-05 897.125 23.6302 897.125 52.7796Z"/><path fill="#343433" d="M844.322 52.7796C844.322 81.929 867.953 105.559 897.102 105.559L897.102 -2.35964e-05C867.953 -2.74188e-05 844.322 23.6302 844.322 52.7796Z"/><path fill="#474645" d="M1055.54 105.506L950.09 105.506L1055.54 0.0511475L1055.54 105.506Z"/></svg>