<svg xmlns="http://www.w3.org/2000/svg" width="200" height="50" fill="none" viewBox="0 0 200 50"><rect width="49.951" height="49.951" fill="#9F9995" transform="matrix(1 -8.74228e-08 -8.74228e-08 -1 49.9507 49.9758)"/><circle cx="24.975" cy="24.975" r="24.975" fill="#9F9995" transform="matrix(1 -8.74228e-08 -8.74228e-08 -1 149.852 49.9758)"/><path fill="#D6D2CC" d="M25 25C25 38.8071 13.8071 50 0 50L-6.55671e-06 3.27835e-06C13.8071 1.46777e-06 25 11.1929 25 25Z"/><path fill="#343433" d="M49.9282 25C49.9282 38.8071 38.7353 50 24.9282 50L24.9282 3.27835e-06C38.7353 1.46777e-06 49.9282 11.1929 49.9282 25Z"/><path fill="#474645" d="M149.852 0.0251999L99.9014 0.0252043L149.852 49.9758L149.852 0.0251999Z"/></svg>